<svg width="280" height="66" viewBox="0 0 280 66" fill="none" xmlns="http://www.w3.org/2000/svg">
<path d="M43.2586 22.6642C43.2586 34.0382 34.0382 43.2586 22.6642 43.2586C11.2902 43.2586 2.06978 34.0382 2.06978 22.6642C2.06978 11.2902 11.2902 2.06978 22.6642 2.06978C34.0382 2.06978 43.2586 11.2902 43.2586 22.6642Z" stroke="white" stroke-width="4.13956"/>
<path d="M43.2586 22.6642C43.2586 34.0382 34.0382 43.2586 22.6642 43.2586C11.2902 43.2586 2.06978 34.0382 2.06978 22.6642C2.06978 11.2902 11.2902 2.06978 22.6642 2.06978C34.0382 2.06978 43.2586 11.2902 43.2586 22.6642Z" stroke="white" stroke-width="4.13956"/>
<rect x="2.2372" y="13.611" width="18.441" height="50.2211" rx="9.22051" stroke="white" stroke-width="4.13956"/>
<rect x="24.8178" y="45.2237" width="18.441" height="18.6083" rx="9.22051" stroke="white" stroke-width="4.13956"/>
<rect x="24.8178" y="45.2237" width="18.441" height="18.6083" rx="9.22051" stroke="white" stroke-width="4.13956"/>
<path d="M65.9283 35.2977V30.3832H73.4855C75.0309 30.3832 76.2209 29.9969 77.0555 29.2241C77.9209 28.4205 78.3536 27.3233 78.3536 25.9324C78.3536 24.6651 77.9209 23.6142 77.0555 22.7797C76.2209 21.9142 75.0309 21.4815 73.4855 21.4815H65.9283V16.3352H74.0419C76.1436 16.3352 77.9827 16.7525 79.5591 17.587C81.1663 18.3906 82.4027 19.5033 83.2681 20.9252C84.1645 22.347 84.6126 23.9851 84.6126 25.8396C84.6126 27.756 84.1645 29.4251 83.2681 30.8469C82.4027 32.2377 81.1663 33.335 79.5591 34.1386C77.9518 34.9114 76.0818 35.2977 73.9491 35.2977H65.9283ZM61.292 48.9285V16.3352H67.5974V48.9285H61.292ZM79.0954 48.9285L68.3392 34.8341L74.1346 33.0259L86.7453 48.9285H79.0954ZM98.3502 49.3921C96.0012 49.3921 93.9148 48.8976 92.0912 47.9085C90.2676 46.8885 88.8149 45.4976 87.7331 43.7358C86.6822 41.974 86.1567 39.9649 86.1567 37.7086C86.1567 35.4832 86.6667 33.505 87.6867 31.7741C88.7376 30.0123 90.1594 28.6214 91.9521 27.6014C93.7448 26.5505 95.7385 26.0251 97.933 26.0251C100.097 26.0251 101.997 26.5196 103.636 27.5087C105.305 28.4669 106.603 29.796 107.53 31.4959C108.488 33.165 108.967 35.0659 108.967 37.1986C108.967 37.6004 108.936 38.0177 108.875 38.4504C108.844 38.8522 108.766 39.3158 108.643 39.8413L89.8194 39.8877V35.3441L105.815 35.2977L103.357 37.1986C103.296 35.8695 103.048 34.7568 102.616 33.8605C102.214 32.9641 101.611 32.2841 100.807 31.8205C100.035 31.3259 99.0766 31.0787 97.933 31.0787C96.7275 31.0787 95.6766 31.3569 94.7803 31.9132C93.8839 32.4387 93.1885 33.1959 92.6939 34.185C92.2303 35.1432 91.9985 36.2868 91.9985 37.6159C91.9985 38.9759 92.2458 40.1658 92.7403 41.1858C93.2658 42.1749 94.0076 42.9476 94.9657 43.504C95.9239 44.0294 97.0366 44.2922 98.3039 44.2922C99.4475 44.2922 100.483 44.1067 101.41 43.7358C102.337 43.334 103.141 42.7467 103.821 41.974L107.391 45.544C106.309 46.8112 104.98 47.7694 103.404 48.4185C101.858 49.0676 100.174 49.3921 98.3502 49.3921ZM119.029 49.4385C117.762 49.4385 116.51 49.2685 115.274 48.9285C114.068 48.5885 112.955 48.1248 111.935 47.5376C110.915 46.9194 110.034 46.1776 109.293 45.3121L112.909 41.6495C113.682 42.5149 114.578 43.164 115.598 43.5967C116.618 44.0294 117.746 44.2458 118.983 44.2458C119.972 44.2458 120.713 44.1067 121.208 43.8285C121.733 43.5503 121.996 43.1331 121.996 42.5767C121.996 41.9585 121.718 41.4795 121.162 41.1395C120.636 40.7995 119.941 40.5213 119.075 40.3049C118.21 40.0577 117.298 39.7949 116.34 39.5168C115.413 39.2077 114.516 38.8213 113.651 38.3577C112.785 37.8631 112.074 37.1986 111.518 36.3641C110.993 35.4986 110.73 34.3859 110.73 33.0259C110.73 31.6041 111.07 30.3678 111.75 29.3169C112.461 28.266 113.465 27.4469 114.764 26.8596C116.062 26.2724 117.592 25.9787 119.353 25.9787C121.208 25.9787 122.877 26.3033 124.361 26.9524C125.875 27.6014 127.127 28.5751 128.116 29.8732L124.453 33.5359C123.773 32.7014 123.001 32.0987 122.135 31.7278C121.301 31.3569 120.389 31.1714 119.4 31.1714C118.503 31.1714 117.808 31.3105 117.313 31.5887C116.85 31.8668 116.618 32.2532 116.618 32.7477C116.618 33.3041 116.881 33.7368 117.406 34.0459C117.963 34.355 118.673 34.6332 119.539 34.8804C120.404 35.0968 121.301 35.3595 122.228 35.6686C123.186 35.9468 124.082 36.3486 124.917 36.8741C125.782 37.3995 126.478 38.095 127.003 38.9604C127.56 39.8258 127.838 40.9386 127.838 42.2985C127.838 44.4931 127.05 46.2394 125.473 47.5376C123.897 48.8048 121.749 49.4385 119.029 49.4385ZM140.093 49.3921C138.115 49.3921 136.353 48.9748 134.808 48.1403C133.293 47.3058 132.103 46.1467 131.238 44.6631C130.373 43.1794 129.94 41.464 129.94 39.5168V26.5351H136.06V39.3777C136.06 40.3049 136.214 41.1086 136.523 41.7885C136.832 42.4376 137.296 42.9322 137.914 43.2722C138.532 43.6122 139.259 43.7822 140.093 43.7822C141.361 43.7822 142.35 43.3958 143.061 42.6231C143.771 41.8504 144.127 40.7686 144.127 39.3777V26.5351H150.2V39.5168C150.2 41.4949 149.768 43.2258 148.902 44.7094C148.068 46.193 146.878 47.3521 145.332 48.1867C143.818 48.9903 142.071 49.3921 140.093 49.3921ZM153.646 48.9285V26.5351H159.72V48.9285H153.646ZM168.251 48.9285V35.715C168.251 34.4168 167.833 33.4123 166.999 32.7014C166.195 31.9596 165.191 31.5887 163.985 31.5887C163.182 31.5887 162.455 31.7587 161.806 32.0987C161.157 32.4077 160.647 32.8714 160.276 33.4896C159.905 34.1077 159.72 34.8495 159.72 35.715L157.355 34.5559C157.355 32.825 157.726 31.3259 158.468 30.0587C159.241 28.7914 160.276 27.8178 161.574 27.1378C162.872 26.4269 164.341 26.0715 165.979 26.0715C167.524 26.0715 168.931 26.4269 170.198 27.1378C171.465 27.8178 172.47 28.7914 173.211 30.0587C173.953 31.295 174.324 32.7941 174.324 34.5559V48.9285H168.251ZM182.855 48.9285V35.715C182.855 34.4168 182.438 33.4123 181.603 32.7014C180.8 31.9596 179.795 31.5887 178.59 31.5887C177.817 31.5887 177.09 31.7587 176.41 32.0987C175.761 32.4077 175.251 32.8714 174.881 33.4896C174.51 34.1077 174.324 34.8495 174.324 35.715L170.847 34.8804C170.971 33.0877 171.45 31.5423 172.284 30.2441C173.119 28.9151 174.216 27.8951 175.576 27.1842C176.936 26.4424 178.45 26.0715 180.12 26.0715C181.789 26.0715 183.288 26.4269 184.617 27.1378C185.946 27.8178 186.997 28.8069 187.769 30.105C188.542 31.4032 188.929 32.9486 188.929 34.7414V48.9285H182.855ZM203.171 49.3921C200.822 49.3921 198.735 48.8976 196.912 47.9085C195.088 46.8885 193.635 45.4976 192.554 43.7358C191.503 41.974 190.977 39.9649 190.977 37.7086C190.977 35.4832 191.487 33.505 192.507 31.7741C193.558 30.0123 194.98 28.6214 196.773 27.6014C198.565 26.5505 200.559 26.0251 202.753 26.0251C204.917 26.0251 206.818 26.5196 208.456 27.5087C210.125 28.4669 211.423 29.796 212.351 31.4959C213.309 33.165 213.788 35.0659 213.788 37.1986C213.788 37.6004 213.757 38.0177 213.695 38.4504C213.664 38.8522 213.587 39.3158 213.463 39.8413L194.64 39.8877V35.3441L210.635 35.2977L208.178 37.1986C208.116 35.8695 207.869 34.7568 207.436 33.8605C207.034 32.9641 206.432 32.2841 205.628 31.8205C204.855 31.3259 203.897 31.0787 202.753 31.0787C201.548 31.0787 200.497 31.3569 199.601 31.9132C198.704 32.4387 198.009 33.1959 197.514 34.185C197.051 35.1432 196.819 36.2868 196.819 37.6159C196.819 38.9759 197.066 40.1658 197.561 41.1858C198.086 42.1749 198.828 42.9476 199.786 43.504C200.744 44.0294 201.857 44.2922 203.124 44.2922C204.268 44.2922 205.303 44.1067 206.231 43.7358C207.158 43.334 207.962 42.7467 208.642 41.974L212.212 45.544C211.13 46.8112 209.801 47.7694 208.224 48.4185C206.679 49.0676 204.994 49.3921 203.171 49.3921ZM228.578 49.3921C226.971 49.3921 225.518 49.0676 224.22 48.4185C222.922 47.7385 221.887 46.8267 221.114 45.683C220.341 44.5394 219.924 43.2258 219.862 41.7422V33.8141C219.924 32.3305 220.341 31.0169 221.114 29.8732C221.918 28.6987 222.953 27.7714 224.22 27.0914C225.518 26.4115 226.971 26.0715 228.578 26.0715C230.649 26.0715 232.504 26.5815 234.142 27.6014C235.78 28.6214 237.063 30.0123 237.99 31.7741C238.948 33.5359 239.427 35.5295 239.427 37.755C239.427 39.9495 238.948 41.9276 237.99 43.6894C237.063 45.4512 235.78 46.8421 234.142 47.8621C232.504 48.8821 230.649 49.3921 228.578 49.3921ZM227.512 43.7822C228.625 43.7822 229.614 43.5349 230.479 43.0404C231.345 42.5149 232.009 41.804 232.473 40.9076C232.967 39.9804 233.215 38.914 233.215 37.7086C233.215 36.5341 232.967 35.4986 232.473 34.6023C232.009 33.675 231.345 32.9641 230.479 32.4696C229.614 31.9441 228.625 31.6814 227.512 31.6814C226.43 31.6814 225.457 31.9441 224.591 32.4696C223.726 32.9641 223.046 33.675 222.551 34.6023C222.088 35.4986 221.856 36.5341 221.856 37.7086C221.856 38.914 222.088 39.9804 222.551 40.9076C223.046 41.804 223.71 42.5149 224.545 43.0404C225.41 43.5349 226.399 43.7822 227.512 43.7822ZM216.153 58.2938V26.5351H222.227V32.4232L221.207 37.8477L222.18 43.2722V58.2938H216.153ZM251.384 49.3921C249.344 49.3921 247.505 48.8821 245.867 47.8621C244.229 46.8421 242.946 45.4512 242.019 43.6894C241.091 41.9276 240.628 39.9495 240.628 37.755C240.628 35.5295 241.091 33.5359 242.019 31.7741C242.946 30.0123 244.229 28.6214 245.867 27.6014C247.505 26.5815 249.344 26.0715 251.384 26.0715C252.991 26.0715 254.428 26.396 255.696 27.0451C256.963 27.6942 257.968 28.606 258.709 29.7805C259.482 30.9241 259.899 32.2223 259.961 33.675V41.7422C259.899 43.2258 259.482 44.5394 258.709 45.683C257.968 46.8267 256.963 47.7385 255.696 48.4185C254.428 49.0676 252.991 49.3921 251.384 49.3921ZM252.497 43.7822C254.197 43.7822 255.572 43.2258 256.623 42.1131C257.674 40.9695 258.199 39.5013 258.199 37.7086C258.199 36.5341 257.952 35.4986 257.458 34.6023C256.994 33.675 256.329 32.9641 255.464 32.4696C254.629 31.9441 253.64 31.6814 252.497 31.6814C251.384 31.6814 250.395 31.9441 249.529 32.4696C248.695 32.9641 248.03 33.675 247.536 34.6023C247.072 35.4986 246.84 36.5341 246.84 37.7086C246.84 38.914 247.072 39.9804 247.536 40.9076C248.03 41.804 248.695 42.5149 249.529 43.0404C250.395 43.5349 251.384 43.7822 252.497 43.7822ZM257.875 48.9285V42.9013L258.848 37.4304L257.875 32.0523V26.5351H263.902V48.9285H257.875ZM267.884 48.9285V15.4079H273.958V48.9285H267.884Z" fill="white"/>
</svg>
