<svg width="237" height="55" viewBox="0 0 237 55" fill="none" xmlns="http://www.w3.org/2000/svg">
<path d="M55.039 30.703V26.5257H61.4626C62.7763 26.5257 63.7877 26.1973 64.4971 25.5405C65.2327 24.8574 65.6005 23.9248 65.6005 22.7425C65.6005 21.6653 65.2327 20.7721 64.4971 20.0627C63.7877 19.3271 62.7763 18.9593 61.4626 18.9593H55.039V14.5849H61.9355C63.7221 14.5849 65.2853 14.9396 66.6252 15.6489C67.9913 16.332 69.0422 17.2778 69.7779 18.4864C70.5398 19.6949 70.9207 21.0873 70.9207 22.6637C70.9207 24.2926 70.5398 25.7113 69.7779 26.9198C69.0422 28.1021 67.9913 29.0347 66.6252 29.7178C65.259 30.3746 63.6695 30.703 61.8567 30.703H55.039ZM51.0982 42.2892V14.5849H56.4577V42.2892H51.0982ZM66.2311 42.2892L57.0883 30.309L62.0144 28.772L72.7335 42.2892H66.2311ZM82.5977 42.6833C80.601 42.6833 78.8276 42.2629 77.2775 41.4222C75.7274 40.5552 74.4926 39.3729 73.5731 37.8754C72.6798 36.3779 72.2332 34.6702 72.2332 32.7523C72.2332 30.8607 72.6667 29.1792 73.5337 27.708C74.427 26.2105 75.6355 25.0282 77.1593 24.1612C78.6831 23.2679 80.3777 22.8213 82.243 22.8213C84.0821 22.8213 85.6978 23.2417 87.0903 24.0824C88.509 24.8968 89.6124 26.0266 90.4006 27.4715C91.215 28.8902 91.6223 30.506 91.6223 32.3188C91.6223 32.6603 91.596 33.015 91.5434 33.3828C91.5172 33.7244 91.4515 34.1185 91.3464 34.5651L75.3465 34.6045V30.7425L88.9425 30.703L86.8538 32.3188C86.8013 31.1891 86.5911 30.2433 86.2233 29.4814C85.8817 28.7195 85.3694 28.1415 84.6863 27.7474C84.0295 27.327 83.2151 27.1169 82.243 27.1169C81.2184 27.1169 80.3251 27.3533 79.5632 27.8262C78.8013 28.2728 78.2102 28.9165 77.7898 29.7572C77.3957 30.5717 77.1987 31.5438 77.1987 32.6735C77.1987 33.8295 77.4089 34.841 77.8292 35.7079C78.2759 36.5487 78.9064 37.2055 79.7208 37.6784C80.5353 38.125 81.4811 38.3483 82.5583 38.3483C83.5303 38.3483 84.4105 38.1907 85.1986 37.8754C85.9868 37.5339 86.6699 37.0347 87.2479 36.3779L90.2824 39.4124C89.3628 40.4895 88.2331 41.304 86.8932 41.8557C85.5796 42.4074 84.1477 42.6833 82.5977 42.6833ZM100.175 42.7227C99.0974 42.7227 98.0333 42.5782 96.9824 42.2892C95.9578 42.0002 95.012 41.6061 94.145 41.1069C93.278 40.5815 92.5293 39.9509 91.8987 39.2153L94.9726 36.102C95.6294 36.8377 96.3913 37.3894 97.2583 37.7572C98.1253 38.125 99.0842 38.3089 100.135 38.3089C100.976 38.3089 101.606 38.1907 102.027 37.9542C102.473 37.7178 102.697 37.3631 102.697 36.8902C102.697 36.3648 102.46 35.9575 101.987 35.6685C101.541 35.3795 100.95 35.1431 100.214 34.9592C99.4783 34.749 98.7033 34.5257 97.8888 34.2892C97.1007 34.0265 96.3388 33.6981 95.6031 33.304C94.8675 32.8837 94.2632 32.3188 93.7903 31.6094C93.3437 30.8738 93.1204 29.928 93.1204 28.772C93.1204 27.5635 93.4094 26.5126 93.9874 25.6193C94.5917 24.7261 95.4455 24.0298 96.5489 23.5307C97.6524 23.0315 98.9529 22.7819 100.45 22.7819C102.027 22.7819 103.445 23.0578 104.707 23.6095C105.994 24.1612 107.058 24.9888 107.899 26.0922L104.785 29.2055C104.207 28.4962 103.551 27.9838 102.815 27.6686C102.106 27.3533 101.331 27.1957 100.49 27.1957C99.7279 27.1957 99.1368 27.3139 98.7164 27.5504C98.3223 27.7868 98.1253 28.1152 98.1253 28.5356C98.1253 29.0085 98.3486 29.3763 98.7952 29.639C99.2681 29.9017 99.8724 30.1382 100.608 30.3484C101.344 30.5323 102.106 30.7556 102.894 31.0183C103.708 31.2548 104.47 31.5963 105.179 32.0429C105.915 32.4896 106.506 33.0807 106.953 33.8163C107.426 34.552 107.662 35.4978 107.662 36.6537C107.662 38.5191 106.992 40.0035 105.652 41.1069C104.312 42.1841 102.487 42.7227 100.175 42.7227ZM118.079 42.6833C116.398 42.6833 114.9 42.3286 113.587 41.6192C112.299 40.9099 111.288 39.9247 110.552 38.6636C109.817 37.4025 109.449 35.9444 109.449 34.2892V23.2548H114.651V34.171C114.651 34.9592 114.782 35.6423 115.045 36.2203C115.308 36.772 115.702 37.1923 116.227 37.4813C116.753 37.7703 117.37 37.9148 118.079 37.9148C119.156 37.9148 119.997 37.5864 120.601 36.9296C121.206 36.2728 121.508 35.3533 121.508 34.171V23.2548H126.67V34.2892C126.67 35.9707 126.303 37.4419 125.567 38.703C124.858 39.9641 123.846 40.9493 122.532 41.6586C121.245 42.3417 119.761 42.6833 118.079 42.6833ZM129.599 42.2892V23.2548H134.762V42.2892H129.599ZM142.013 42.2892V31.0577C142.013 29.9543 141.658 29.1004 140.949 28.4962C140.266 27.8656 139.412 27.5504 138.387 27.5504C137.704 27.5504 137.087 27.6949 136.535 27.9838C135.983 28.2466 135.55 28.6407 135.235 29.1661C134.919 29.6916 134.762 30.3221 134.762 31.0577L132.752 30.0725C132.752 28.6013 133.067 27.327 133.698 26.2499C134.355 25.1727 135.235 24.3451 136.338 23.7671C137.442 23.1629 138.69 22.8607 140.082 22.8607C141.396 22.8607 142.591 23.1629 143.668 23.7671C144.745 24.3451 145.599 25.1727 146.23 26.2499C146.86 27.3008 147.175 28.575 147.175 30.0725V42.2892H142.013ZM154.427 42.2892V31.0577C154.427 29.9543 154.072 29.1004 153.363 28.4962C152.68 27.8656 151.826 27.5504 150.801 27.5504C150.144 27.5504 149.527 27.6949 148.949 27.9838C148.397 28.2466 147.964 28.6407 147.648 29.1661C147.333 29.6916 147.175 30.3221 147.175 31.0577L144.22 30.3484C144.325 28.8246 144.732 27.5109 145.442 26.4075C146.151 25.2778 147.084 24.4108 148.24 23.8065C149.396 23.176 150.683 22.8607 152.102 22.8607C153.52 22.8607 154.795 23.1629 155.924 23.7671C157.054 24.3451 157.947 25.1858 158.604 26.2893C159.261 27.3927 159.589 28.7063 159.589 30.2301V42.2892H154.427ZM171.695 42.6833C169.698 42.6833 167.925 42.2629 166.375 41.4222C164.825 40.5552 163.59 39.3729 162.67 37.8754C161.777 36.3779 161.331 34.6702 161.331 32.7523C161.331 30.8607 161.764 29.1792 162.631 27.708C163.524 26.2105 164.733 25.0282 166.257 24.1612C167.78 23.2679 169.475 22.8213 171.34 22.8213C173.179 22.8213 174.795 23.2417 176.188 24.0824C177.606 24.8968 178.71 26.0266 179.498 27.4715C180.312 28.8902 180.72 30.506 180.72 32.3188C180.72 32.6603 180.693 33.015 180.641 33.3828C180.615 33.7244 180.549 34.1185 180.444 34.5651L164.444 34.6045V30.7425L178.04 30.703L175.951 32.3188C175.899 31.1891 175.688 30.2433 175.321 29.4814C174.979 28.7195 174.467 28.1415 173.784 27.7474C173.127 27.327 172.312 27.1169 171.34 27.1169C170.316 27.1169 169.422 27.3533 168.661 27.8262C167.899 28.2728 167.308 28.9165 166.887 29.7572C166.493 30.5717 166.296 31.5438 166.296 32.6735C166.296 33.8295 166.506 34.841 166.927 35.7079C167.373 36.5487 168.004 37.2055 168.818 37.6784C169.633 38.125 170.578 38.3483 171.656 38.3483C172.628 38.3483 173.508 38.1907 174.296 37.8754C175.084 37.5339 175.767 37.0347 176.345 36.3779L179.38 39.4124C178.46 40.4895 177.33 41.304 175.991 41.8557C174.677 42.4074 173.245 42.6833 171.695 42.6833ZM193.292 42.6833C191.925 42.6833 190.691 42.4074 189.587 41.8557C188.484 41.2777 187.604 40.5027 186.947 39.5306C186.29 38.5585 185.935 37.4419 185.883 36.1808V29.442C185.935 28.1809 186.29 27.0643 186.947 26.0922C187.63 25.0939 188.51 24.3057 189.587 23.7277C190.691 23.1497 191.925 22.8607 193.292 22.8607C195.052 22.8607 196.628 23.2942 198.021 24.1612C199.413 25.0282 200.503 26.2105 201.292 27.708C202.106 29.2055 202.513 30.9001 202.513 32.7917C202.513 34.657 202.106 36.3385 201.292 37.836C200.503 39.3335 199.413 40.5158 198.021 41.3828C196.628 42.2498 195.052 42.6833 193.292 42.6833ZM182.73 50.2497V23.2548H187.893V28.2597L187.026 32.8705L187.853 37.4813V50.2497H182.73ZM192.385 37.9148C193.331 37.9148 194.172 37.7046 194.907 37.2843C195.643 36.8377 196.208 36.2334 196.602 35.4715C197.022 34.6833 197.232 33.7769 197.232 32.7523C197.232 31.7539 197.022 30.8738 196.602 30.1119C196.208 29.3237 195.643 28.7195 194.907 28.2991C194.172 27.8525 193.331 27.6292 192.385 27.6292C191.466 27.6292 190.638 27.8525 189.902 28.2991C189.167 28.7195 188.589 29.3237 188.168 30.1119C187.774 30.8738 187.577 31.7539 187.577 32.7523C187.577 33.7769 187.774 34.6833 188.168 35.4715C188.589 36.2334 189.154 36.8377 189.863 37.2843C190.599 37.7046 191.439 37.9148 192.385 37.9148ZM212.676 42.6833C210.942 42.6833 209.379 42.2498 207.987 41.3828C206.594 40.5158 205.504 39.3335 204.716 37.836C203.928 36.3385 203.534 34.657 203.534 32.7917C203.534 30.9001 203.928 29.2055 204.716 27.708C205.504 26.2105 206.594 25.0282 207.987 24.1612C209.379 23.2942 210.942 22.8607 212.676 22.8607C214.043 22.8607 215.264 23.1366 216.341 23.6883C217.419 24.24 218.272 25.0151 218.903 26.0134C219.56 26.9855 219.914 28.0889 219.967 29.3237V36.1808C219.914 37.4419 219.56 38.5585 218.903 39.5306C218.272 40.5027 217.419 41.2777 216.341 41.8557C215.264 42.4074 214.043 42.6833 212.676 42.6833ZM213.622 37.9148C215.067 37.9148 216.236 37.4419 217.13 36.4961C218.023 35.524 218.469 34.2761 218.469 32.7523C218.469 31.7539 218.259 30.8738 217.839 30.1119C217.445 29.3237 216.88 28.7195 216.144 28.2991C215.435 27.8525 214.594 27.6292 213.622 27.6292C212.676 27.6292 211.836 27.8525 211.1 28.2991C210.391 28.7195 209.826 29.3237 209.405 30.1119C209.011 30.8738 208.814 31.7539 208.814 32.7523C208.814 33.7769 209.011 34.6833 209.405 35.4715C209.826 36.2334 210.391 36.8377 211.1 37.2843C211.836 37.7046 212.676 37.9148 213.622 37.9148ZM218.194 42.2892V37.1661L219.021 32.5158L218.194 27.9444V23.2548H223.317V42.2892H218.194ZM226.702 42.2892V13.7967H231.864V42.2892H226.702Z" fill="white"/>
<path d="M37.4845 18.915C37.4845 29.1706 29.1706 37.4845 18.915 37.4845C8.65932 37.4845 0.345477 29.1706 0.345477 18.915C0.345477 8.65932 8.65932 0.345477 18.915 0.345477C29.1706 0.345477 37.4845 8.65932 37.4845 18.915Z" fill="#6F52E5" stroke="#6F52E5" stroke-width="0.690955"/>
<rect x="0.485248" y="9.97756" width="18.1542" height="44.677" rx="9.07711" fill="#FFC008" stroke="#FFC008" stroke-width="0.690955"/>
<rect x="19.3303" y="36.3607" width="18.1542" height="18.2938" rx="9.07711" fill="#43CD40" stroke="#43CD40" stroke-width="0.690955"/>
</svg>
