<svg width="37" height="37" viewBox="0 0 37 37" fill="none" xmlns="http://www.w3.org/2000/svg">
<g clip-path="url(#clip0_53_306)">
<path d="M18.3797 3.30979C23.2906 3.30979 23.8721 3.33133 25.8034 3.41748C27.5983 3.49646 28.5676 3.798 29.2137 4.04929C30.0681 4.37955 30.6856 4.78161 31.3245 5.42059C31.9707 6.06675 32.3656 6.67702 32.6958 7.53139C32.9471 8.17755 33.2487 9.15397 33.3277 10.9417C33.4138 12.8802 33.4353 13.4617 33.4353 18.3654C33.4353 23.2762 33.4138 23.8578 33.3277 25.7891C33.2487 27.584 32.9471 28.5532 32.6958 29.1994C32.3656 30.0538 31.9635 30.6712 31.3245 31.3102C30.6784 31.9563 30.0681 32.3512 29.2137 32.6815C28.5676 32.9328 27.5912 33.2343 25.8034 33.3133C23.865 33.3994 23.2834 33.421 18.3797 33.421C13.4689 33.421 12.8874 33.3994 10.9561 33.3133C9.16116 33.2343 8.19191 32.9328 7.54575 32.6815C6.69138 32.3512 6.07393 31.9492 5.43495 31.3102C4.78879 30.664 4.39391 30.0538 4.06365 29.1994C3.81236 28.5532 3.51082 27.5768 3.43184 25.7891C3.34569 23.8506 3.32415 23.269 3.32415 18.3654C3.32415 13.4545 3.34569 12.873 3.43184 10.9417C3.51082 9.1468 3.81236 8.17755 4.06365 7.53139C4.39391 6.67702 4.79597 6.05957 5.43495 5.42059C6.08111 4.77443 6.69138 4.37955 7.54575 4.04929C8.19191 3.798 9.16834 3.49646 10.9561 3.41748C12.8874 3.33133 13.4689 3.30979 18.3797 3.30979ZM18.3797 0C13.3899 0 12.7653 0.0215388 10.8053 0.107694C8.85243 0.193849 7.50985 0.509751 6.34676 0.962065C5.13341 1.43592 4.10673 2.06054 3.08722 3.08722C2.06054 4.10672 1.43592 5.13341 0.962065 6.33958C0.509751 7.50985 0.193849 8.84525 0.107694 10.7981C0.0215388 12.7653 0 13.3899 0 18.3797C0 23.3696 0.0215388 23.9942 0.107694 25.9542C0.193849 27.9071 0.509751 29.2496 0.962065 30.4127C1.43592 31.6261 2.06054 32.6528 3.08722 33.6723C4.10673 34.6918 5.13341 35.3236 6.33958 35.7902C7.50985 36.2426 8.84525 36.5585 10.7981 36.6446C12.7581 36.7308 13.3828 36.7523 18.3726 36.7523C23.3624 36.7523 23.987 36.7308 25.947 36.6446C27.8999 36.5585 29.2425 36.2426 30.4056 35.7902C31.6117 35.3236 32.6384 34.6918 33.6579 33.6723C34.6774 32.6528 35.3092 31.6261 35.7759 30.4199C36.2282 29.2496 36.5441 27.9142 36.6303 25.9614C36.7164 24.0014 36.738 23.3767 36.738 18.3869C36.738 13.3971 36.7164 12.7725 36.6303 10.8125C36.5441 8.85961 36.2282 7.51703 35.7759 6.35394C35.3236 5.13341 34.699 4.10672 33.6723 3.08722C32.6528 2.06772 31.6261 1.43592 30.4199 0.969244C29.2496 0.51693 27.9142 0.201028 25.9614 0.114873C23.9942 0.0215388 23.3696 0 18.3797 0Z" fill="black"/>
<path d="M18.3798 8.93848C13.1674 8.93848 8.9386 13.1673 8.9386 18.3796C8.9386 23.592 13.1674 27.8208 18.3798 27.8208C23.5921 27.8208 27.8209 23.592 27.8209 18.3796C27.8209 13.1673 23.5921 8.93848 18.3798 8.93848ZM18.3798 24.5038C14.9982 24.5038 12.2556 21.7612 12.2556 18.3796C12.2556 14.9981 14.9982 12.2554 18.3798 12.2554C21.7613 12.2554 24.5039 14.9981 24.5039 18.3796C24.5039 21.7612 21.7613 24.5038 18.3798 24.5038Z" fill="black"/>
<path d="M30.3984 8.56498C30.3984 9.78551 29.4076 10.7691 28.1942 10.7691C26.9737 10.7691 25.9901 9.77833 25.9901 8.56498C25.9901 7.34444 26.9809 6.36084 28.1942 6.36084C29.4076 6.36084 30.3984 7.35162 30.3984 8.56498Z" fill="black"/>
</g>
<defs>
<clipPath id="clip0_53_306">
<rect width="36.7595" height="36.7595" fill="white"/>
</clipPath>
</defs>
</svg>
