<svg width="37" height="37" viewBox="0 0 37 37" fill="none" xmlns="http://www.w3.org/2000/svg">
<g clip-path="url(#clip0_53_305)">
<path d="M34.2787 0H2.95412C1.45358 0 0.240234 1.18463 0.240234 2.64927V34.103C0.240234 35.5677 1.45358 36.7595 2.95412 36.7595H34.2787C35.7792 36.7595 36.9997 35.5677 36.9997 34.1102V2.64927C36.9997 1.18463 35.7792 0 34.2787 0ZM11.146 31.3245H5.68954V13.7776H11.146V31.3245ZM8.41779 11.3868C6.66597 11.3868 5.25159 9.97245 5.25159 8.22781C5.25159 6.48317 6.66597 5.06879 8.41779 5.06879C10.1624 5.06879 11.5768 6.48317 11.5768 8.22781C11.5768 9.96527 10.1624 11.3868 8.41779 11.3868ZM31.5648 31.3245H26.1155V22.7952C26.1155 20.7634 26.0796 18.1428 23.2795 18.1428C20.4436 18.1428 20.0128 20.3613 20.0128 22.6516V31.3245H14.5707V13.7776H19.7974V16.1756H19.8692C20.5944 14.7971 22.3749 13.3397 25.0242 13.3397C30.5453 13.3397 31.5648 16.9725 31.5648 21.6967V31.3245Z" fill="black"/>
</g>
<defs>
<clipPath id="clip0_53_305">
<rect width="36.7595" height="36.7595" fill="white" transform="translate(0.240234)"/>
</clipPath>
</defs>
</svg>
