<svg width="259" height="58" viewBox="0 0 259 58" fill="none" xmlns="http://www.w3.org/2000/svg">
<path d="M50.9827 45.2684L63.8918 14.0009H69.4305L82.2055 45.2684H77.1134L73.4953 36.1114H59.5143L55.8516 45.2684H50.9827ZM61.0329 32.2253H71.9765L66.5271 18.4677L61.0329 32.2253ZM86.6675 45.2684V42.0076L105.428 18.1103H86.8462V14.0009H111.592V17.2616L92.7422 41.159H111.86V45.2684H86.6675ZM132.544 45.7597C130.281 45.7597 128.166 45.3578 126.201 44.5537C124.236 43.7199 122.494 42.5733 120.975 41.1143C119.486 39.6254 118.325 37.9131 117.491 35.9775C116.687 34.0121 116.285 31.8978 116.285 29.6347C116.285 27.3714 116.687 25.2721 117.491 23.3364C118.325 21.3711 119.486 19.6588 120.975 18.1996C122.494 16.7107 124.236 15.5643 126.201 14.7602C128.166 13.9264 130.281 13.5095 132.544 13.5095C134.807 13.5095 136.921 13.9264 138.887 14.7602C140.882 15.5643 142.623 16.7107 144.113 18.1996C145.601 19.6588 146.762 21.3711 147.597 23.3364C148.43 25.2721 148.848 27.3714 148.848 29.6347C148.848 31.8978 148.43 34.0121 147.597 35.9775C146.762 37.9131 145.601 39.6254 144.113 41.1143C142.623 42.5733 140.882 43.7199 138.887 44.5537C136.921 45.3578 134.807 45.7597 132.544 45.7597ZM132.589 41.4269C134.197 41.4269 135.685 41.1291 137.055 40.5336C138.455 39.938 139.676 39.1191 140.718 38.0768C141.76 37.0048 142.579 35.7541 143.175 34.3247C143.77 32.8655 144.068 31.3022 144.068 29.6347C144.068 27.9372 143.77 26.3738 143.175 24.9444C142.579 23.5151 141.76 22.2793 140.718 21.2371C139.676 20.165 138.455 19.3312 137.055 18.7356C135.685 18.1401 134.197 17.8423 132.589 17.8423C130.951 17.8423 129.432 18.1401 128.032 18.7356C126.633 19.3312 125.412 20.165 124.37 21.2371C123.327 22.2793 122.508 23.5151 121.913 24.9444C121.347 26.3738 121.064 27.9372 121.064 29.6347C121.064 31.3022 121.347 32.8655 121.913 34.3247C122.508 35.7541 123.327 37.0048 124.37 38.0768C125.412 39.1191 126.633 39.938 128.032 40.5336C129.432 41.1291 130.951 41.4269 132.589 41.4269ZM161.204 41.0696H167.637C169.275 41.0696 170.793 40.7867 172.193 40.2209C173.592 39.6254 174.813 38.8213 175.856 37.8088C176.928 36.7665 177.747 35.5606 178.313 34.1908C178.909 32.7911 179.206 31.2724 179.206 29.6347C179.206 28.0265 178.909 26.5228 178.313 25.1231C177.747 23.7236 176.928 22.5175 175.856 21.505C174.813 20.4629 173.592 19.6588 172.193 19.093C170.793 18.4974 169.275 18.1996 167.637 18.1996H161.204V41.0696ZM156.515 45.2684V14.0009H167.548C169.9 14.0009 172.073 14.4029 174.069 15.207C176.064 15.9812 177.807 17.068 179.295 18.4677C180.784 19.8672 181.946 21.5199 182.779 23.4258C183.612 25.3316 184.03 27.4012 184.03 29.6347C184.03 31.8978 183.612 33.9823 182.779 35.8881C181.976 37.7641 180.828 39.402 179.34 40.8015C177.85 42.2011 176.093 43.303 174.069 44.1069C172.073 44.8812 169.9 45.2684 167.548 45.2684H156.515ZM191.697 45.2684V14.0009H196.386V27.4012H213.003V14.0009H217.694V45.2684H213.003V31.6447H196.386V45.2684H191.697ZM223.665 45.2684L236.573 14.0009H242.112L254.887 45.2684H249.794L246.177 36.1114H232.196L228.533 45.2684H223.665ZM233.714 32.2253H244.658L239.209 18.4677L233.714 32.2253Z" fill="white"/>
<path d="M40.592 42.6192L23.5465 5.91272C23.5465 5.91272 23.224 5.91272 21.7726 5.91272C20.8694 5.91272 19.8545 5.91272 19.8545 5.91272L16.0478 14.4464C15.8543 14.8304 15.7737 15.248 15.8059 15.6822L16.8379 35.6219L17.1927 42.4522C17.1927 42.4689 17.1765 42.4689 17.1765 42.4689H6.95253C6.93641 42.4689 6.92028 42.4522 6.93641 42.4355L12.3226 32.0648C12.3226 32.0481 12.3387 32.0481 12.3548 32.0648L14.6932 34.0187C14.7093 34.0354 14.7254 34.0187 14.7254 34.002L14.5158 29.2092V29.1924L13.4353 28.2573C12.7902 27.7229 11.616 26.9294 11.4069 27.0099C11.1977 27.0904 10.1294 28.5077 9.83914 29.0755L2.84032 42.5356C2.5178 43.1535 2.44796 43.3602 1.92053 44.4897C1.50875 45.3573 1.08099 45.692 1.80666 46.026C1.91955 46.076 4.38845 46.1596 4.51745 46.1596H18.4344C19.0795 46.1596 19.7085 45.8757 20.16 45.3914C20.6116 44.9071 20.8372 44.2391 20.8049 43.5711L20.5632 38.9118C20.5632 38.8951 20.5793 38.8784 20.5954 38.8951L28.7392 45.6252C29.1584 45.9759 29.6905 46.1596 30.2227 46.1596H38.8342C38.9471 46.1596 39.2444 46.1596 39.3693 46.1596C40.2897 46.1596 41.2746 46.2551 41.8019 46.1596C41.8019 45.1047 40.8823 43.2371 40.592 42.6192ZM36.5282 42.4689H30.642H30.6259L20.3052 33.8851C20.3052 33.8851 20.3052 33.8685 20.289 33.8685L19.3537 15.8157C19.3537 15.8157 19.3537 15.8157 19.3537 15.799L21.6113 11.1565C21.6274 11.1398 21.6435 11.1398 21.6435 11.1565L36.5121 42.4355C36.5443 42.4522 36.5443 42.4689 36.5282 42.4689Z" fill="white" stroke="white" stroke-width="0.80486"/>
</svg>
